# xmcd
#
# Track frame offsets:
#	183
#	16208
#	33240
#	58683
#	76158
#	96258
#	113808
#	132233
#	171690
#
# Disc length: 2740 seconds
#
# Revision: 4
# Processed by: cddbd v1.4PL0 Copyright (c) Steve Scherf et al.
# Submitted via: OrangeCD 4.1
#
DISCID=700ab209
DTITLE=Freddie King - Freddie King (1934-1976)
DYEAR=1900
DGENRE=
TTITLE0=Pack It Up
TTITLE1=Shake Your Bootie
TTITLE2=Tain't Nobody's Business If I Do
TTITLE3=Woman Across the River
TTITLE4=Sweet Home Chicago
TTITLE5=Sugar Sweet
TTITLE6=TV Mama
TTITLE7=Gambling Woman Blues
TTITLE8=Further On Up the Road
EXTD=
EXTT0=
EXTT1=
EXTT2=
EXTT3=
EXTT4=
EXTT5=
EXTT6=
EXTT7=
EXTT8=
PLAYORDER=
